<?xml version="1.0" encoding="UTF-8"?>
<svg id="Layer_1" xmlns="http://www.w3.org/2000/svg" viewBox="0 0 32 18.66">
  <defs>
    <style>
      .cls-1 {
        fill: #231f20;
      }
    </style>
  </defs>
  <path class="cls-1" d="M31.44,1.13H.56c-.31,0-.56-.25-.56-.56s.25-.56.56-.56h30.87c.31,0,.56.25.56.56s-.25.56-.56.56ZM32,9.33c0-.31-.25-.56-.56-.56H.56c-.31,0-.56.25-.56.56s.25.56.56.56h30.87c.31,0,.56-.25.56-.56ZM32,18.1c0-.31-.25-.56-.56-.56H.56c-.31,0-.56.25-.56.56s.25.56.56.56h30.87c.31,0,.56-.25.56-.56Z"/>
</svg>