<?xml version="1.0" encoding="UTF-8"?>
<svg id="Layer_1" xmlns="http://www.w3.org/2000/svg" viewBox="0 0 32 32">
  <defs>
    <style>
      .cls-1 {
        fill: #c99;
      }

      .cls-2 {
        fill: #ededeb;
      }
    </style>
  </defs>
  <path class="cls-1" d="M5.24,27.82c-.13-.06-.22-.17-.32-.27-.91-.87-1.7-1.84-2.39-2.9-.72-1.12-1.29-2.31-1.71-3.57-.3-.91-.52-1.83-.66-2.78-.08-.53-.12-1.07-.15-1.6-.01-.32-.02-.63-.02-.95.01-1.08.14-2.15.37-3.21.32-1.46.84-2.85,1.55-4.17.54-.99,1.18-1.91,1.91-2.77,1.04-1.22,2.24-2.26,3.59-3.12,1.02-.65,2.11-1.18,3.26-1.58.98-.35,1.98-.59,3.01-.74.52-.08,1.05-.12,1.58-.15.33-.01.66-.02.99-.02,1.08.02,2.15.14,3.21.37,1.4.31,2.74.8,4,1.47,1.06.56,2.04,1.23,2.95,2.01,1.21,1.04,2.24,2.23,3.1,3.58.65,1.03,1.18,2.11,1.58,3.26.34.98.59,1.98.74,3,.06.42.1.84.12,1.27.03.45.05.91.04,1.36-.02.83-.09,1.65-.24,2.47-.21,1.17-.54,2.3-1,3.4-.55,1.31-1.26,2.53-2.14,3.65-.47.6-.97,1.16-1.52,1.69-.1.1-.2.22-.33.28-.22-.46-.46-.91-.72-1.34-.51-.85-1.1-1.64-1.78-2.37-.46-.49-.95-.95-1.49-1.36-.94-.73-1.97-1.3-3.08-1.71-.08-.03-.14-.03-.22.01-.86.46-1.77.74-2.74.85-.68.08-1.35.04-2.02-.07-.77-.13-1.51-.39-2.2-.77-.09-.05-.17-.04-.26,0-.56.21-1.1.47-1.62.76-.89.49-1.69,1.1-2.42,1.81-.5.48-.96,1-1.38,1.55-.63.83-1.17,1.71-1.61,2.65ZM16.01,8.55c-3.31.02-5.9,2.65-5.95,5.86-.05,3.36,2.67,6.03,5.94,6.03,3.28,0,5.92-2.65,5.94-5.9.02-3.33-2.65-5.97-5.93-5.99Z"/>
  <path class="cls-2" d="M5.24,27.82c.44-.94.98-1.82,1.61-2.65.42-.55.88-1.07,1.38-1.55.73-.7,1.53-1.31,2.42-1.81.52-.29,1.06-.55,1.62-.76.09-.03.17-.04.26,0,.69.38,1.42.64,2.2.77.67.12,1.34.15,2.02.07.97-.11,1.88-.39,2.74-.85.08-.04.14-.04.22-.01,1.11.42,2.14.99,3.08,1.71.53.41,1.03.87,1.49,1.36.67.73,1.27,1.52,1.78,2.37.26.44.5.88.72,1.34-.06.15-.21.23-.33.32-.34.29-.68.57-1.05.83-.45.31-.89.62-1.37.89-.48.28-.98.53-1.49.76-.51.23-1.02.44-1.56.6-.37.12-.73.23-1.11.32-.6.15-1.2.27-1.82.34-.38.04-.76.09-1.15.11-.52.03-1.04.02-1.55,0-.65-.02-1.29-.09-1.93-.19-.71-.11-1.4-.27-2.08-.48-.43-.13-.85-.26-1.26-.43-.48-.2-.95-.41-1.41-.65-.36-.19-.72-.39-1.07-.6-.28-.17-.54-.36-.81-.54-.43-.28-.82-.61-1.22-.94-.12-.1-.27-.18-.35-.34Z"/>
  <path class="cls-2" d="M16.01,8.55c3.28.02,5.95,2.66,5.93,5.99-.02,3.24-2.66,5.9-5.94,5.9-3.27,0-5.99-2.67-5.94-6.03.05-3.21,2.64-5.84,5.95-5.86Z"/>
</svg>