<?xml version="1.0" encoding="UTF-8"?>
<svg id="Layer_1" xmlns="http://www.w3.org/2000/svg" viewBox="0 0 32 26.62">
  <defs>
    <style>
      .cls-1 {
        fill: #231f20;
      }
    </style>
  </defs>
  <path class="cls-1" d="M28.29,19.06H11.02l-.51-2.06h18.23l3.26-13.23H7.25l-.93-3.77H.56c-.31,0-.56.25-.56.56s.25.56.56.56h4.88l.82,3.31s0,.03.01.04l2.97,12.07h0s.9,3.64.9,3.64h18.16c.32,0,.56-.25.56-.56s-.25-.56-.56-.56ZM30.56,4.9l-2.7,10.98H10.23l-2.71-10.98h23.03ZM14.26,26.62c-1.46,0-2.64-1.19-2.64-2.64s1.19-2.64,2.64-2.64,2.64,1.19,2.64,2.64-1.19,2.64-2.64,2.64ZM14.26,22.46c-.84,0-1.52.68-1.52,1.52s.68,1.52,1.52,1.52,1.52-.68,1.52-1.52-.68-1.52-1.52-1.52ZM24.7,26.62c-1.46,0-2.64-1.19-2.64-2.64s1.19-2.64,2.64-2.64,2.64,1.19,2.64,2.64-1.19,2.64-2.64,2.64ZM24.7,22.46c-.84,0-1.52.68-1.52,1.52s.68,1.52,1.52,1.52,1.52-.68,1.52-1.52-.68-1.52-1.52-1.52Z"/>
</svg>